<?xml version="1.0" encoding="UTF-8" standalone="no"?>
<!-- Created with Inkscape (http://www.inkscape.org/) -->

<svg
   width="50"
   height="50"
   viewBox="0 0 50 50"
   version="1.1"
   id="svg1"
   xml:space="preserve"
   xmlns:inkscape="http://www.inkscape.org/namespaces/inkscape"
   xmlns:sodipodi="http://sodipodi.sourceforge.net/DTD/sodipodi-0.dtd"
   xmlns="http://www.w3.org/2000/svg"
   xmlns:svg="http://www.w3.org/2000/svg"><sodipodi:namedview
     id="namedview1"
     pagecolor="#ffffff"
     bordercolor="#000000"
     borderopacity="0.25"
     inkscape:showpageshadow="2"
     inkscape:pageopacity="0.0"
     inkscape:pagecheckerboard="0"
     inkscape:deskcolor="#d1d1d1"
     inkscape:document-units="mm"><inkscape:page
       x="0"
       y="0"
       width="50"
       height="50"
       id="page2"
       margin="0"
       bleed="0" /></sodipodi:namedview><defs
     id="defs1" /><g
     inkscape:label="Layer 1"
     inkscape:groupmode="layer"
     id="layer1"><path
       id="path1"
       style="font-variation-settings:'wght' 700;fill:none;stroke:#000000;stroke-width:3.82261;stroke-linecap:round;stroke-linejoin:round;stroke-dasharray:none"
       d="M 25,6.9121094 A 18.088695,18.088694 0 0 0 20.541016,7.4824219 10.485573,10.485571 0 0 1 27.986328,17.5 10.485573,10.485571 0 0 1 17.5,27.986328 10.485573,10.485571 0 0 1 7.4824219,20.541016 18.088695,18.088694 0 0 0 6.9121094,25 18.088695,18.088694 0 0 0 25,43.087891 18.088695,18.088694 0 0 0 43.087891,25 18.088695,18.088694 0 0 0 25,6.9121094 Z" /></g></svg>
