<?xml version="1.0" standalone="no"?>
<!DOCTYPE svg PUBLIC "-//W3C//DTD SVG 20010904//EN"
 "http://www.w3.org/TR/2001/REC-SVG-20010904/DTD/svg10.dtd">
<svg version="1.0" xmlns="http://www.w3.org/2000/svg"
 width="250.000000pt" height="250.000000pt" viewBox="0 0 250.000000 250.000000"
 preserveAspectRatio="xMidYMid meet">

<g transform="translate(0.000000,250.000000) scale(0.100000,-0.100000)"
fill="#b30000" stroke="none">
<path d="M854 2486 c-417 -80 -725 -368 -826 -773 -32 -125 -32 -341 0 -466
95 -379 380 -664 758 -759 127 -32 351 -32 478 0 112 28 223 76 316 137 l73
47 326 -325 c179 -179 336 -330 348 -336 93 -47 209 69 162 162 -6 12 -157
168 -335 347 l-323 325 53 82 c64 98 108 200 138 320 32 125 32 341 0 466 -94
374 -372 657 -742 754 -118 31 -317 40 -426 19z m386 -266 c131 -37 223 -93
330 -200 161 -161 225 -314 225 -540 0 -226 -64 -379 -225 -540 -161 -161
-314 -225 -540 -225 -226 0 -379 64 -540 225 -108 108 -163 199 -202 335 -32
114 -32 296 0 410 67 232 249 431 471 516 142 53 334 61 481 19z"/>
</g>
</svg>
