<?xml version="1.0" standalone="no"?>
<!DOCTYPE svg PUBLIC "-//W3C//DTD SVG 20010904//EN"
 "http://www.w3.org/TR/2001/REC-SVG-20010904/DTD/svg10.dtd">
<svg version="1.0" xmlns="http://www.w3.org/2000/svg"
 width="1000.000000pt" height="300.000000pt" viewBox="0 0 1000.000000 300.000000"
 preserveAspectRatio="xMidYMid meet">

<g transform="translate(0.000000,300.000000) scale(0.100000,-0.100000)"
fill="#000000" stroke="none">
<path d="M4431 2694 c-52 -25 -117 -54 -145 -66 -28 -11 -69 -28 -91 -38 -22
-10 -56 -21 -75 -25 -19 -4 -42 -11 -52 -16 -10 -5 -26 -13 -36 -18 -10 -5
-38 -12 -62 -16 l-45 -7 55 36 c59 40 115 116 85 116 -9 0 -40 -16 -70 -34
-151 -97 -316 -168 -465 -200 l-65 -14 127 -1 c141 -1 173 -9 190 -46 l11 -25
28 32 27 33 113 2 c128 1 122 0 312 54 77 21 147 39 157 39 17 0 98 22 153 42
38 15 34 28 -10 28 l-38 1 50 25 c58 30 75 43 75 56 0 12 -102 0 -150 -17 -53
-20 -90 -26 -90 -16 0 5 10 12 23 15 31 8 84 56 92 84 3 12 3 22 -2 22 -4 -1
-50 -21 -102 -46z"/>
<path d="M290 2630 c0 -85 50 -185 129 -259 51 -47 164 -91 416 -162 39 -11
90 -26 115 -33 205 -64 286 -85 360 -96 46 -7 108 -21 137 -32 29 -10 59 -18
68 -18 20 0 138 -40 150 -51 5 -5 17 -9 27 -9 27 0 78 -28 78 -43 0 -7 -12
-25 -26 -40 -44 -48 -52 -72 -47 -145 7 -80 18 -100 43 -77 16 14 26 15 82 4
34 -7 80 -24 101 -37 53 -35 119 -39 230 -14 51 11 130 26 177 32 88 12 171
32 228 57 19 8 62 16 95 17 65 2 265 -10 330 -19 37 -5 37 -5 37 30 l0 35
-265 0 -266 0 -24 25 c-23 22 -25 33 -26 112 0 48 0 112 1 140 2 69 -5 78 -40
53 -72 -51 -118 -62 -255 -61 -124 2 -177 11 -260 46 -66 27 -94 35 -195 55
-58 11 -132 27 -165 35 -33 8 -116 22 -185 30 -129 17 -208 37 -295 75 -27 12
-72 28 -100 35 -75 20 -207 69 -235 87 -14 9 -43 22 -65 29 -22 7 -58 26 -79
41 -22 15 -45 28 -51 28 -7 0 -20 10 -31 21 -10 12 -32 28 -49 36 -73 35 -124
80 -125 111 0 6 -4 12 -10 12 -5 0 -10 -22 -10 -50z"/>
<path d="M4593 2325 c-59 -25 -53 -107 10 -129 89 -32 147 94 61 130 -39 16
-31 17 -71 -1z"/>
<path d="M5950 2327 c-51 -26 -57 -102 -10 -127 49 -26 120 11 120 63 0 53
-62 89 -110 64z"/>
<path d="M2530 2090 l0 -220 295 0 296 0 -3 -382 c-3 -362 -4 -385 -23 -416
-33 -55 -79 -77 -160 -77 -86 1 -128 21 -217 104 l-63 59 -140 -166 c-77 -91
-146 -174 -154 -185 -13 -19 -10 -24 45 -77 164 -153 463 -229 740 -186 236
36 389 136 475 311 75 155 73 127 77 828 l3 627 -586 0 -585 0 0 -220z"/>
<path d="M3907 2303 c-4 -3 -7 -168 -7 -365 l0 -358 60 0 60 0 0 30 0 30 42
-27 c53 -36 165 -45 233 -19 54 21 130 100 144 152 31 113 0 240 -75 302 -88
73 -242 82 -313 18 -10 -9 -21 -16 -24 -16 -4 0 -7 59 -7 130 l0 130 -53 0
c-30 0 -57 -3 -60 -7z m352 -322 c46 -32 65 -68 68 -128 5 -70 -23 -126 -77
-154 -130 -70 -270 65 -215 207 35 92 147 129 224 75z"/>
<path d="M5647 2303 c-4 -3 -7 -61 -7 -128 l0 -122 -57 29 c-51 26 -66 29
-123 25 -139 -9 -232 -98 -246 -235 -18 -167 93 -292 259 -292 66 0 135 23
152 50 12 20 25 10 25 -20 0 -30 1 -30 55 -30 l55 0 0 365 0 365 -53 0 c-30 0
-57 -3 -60 -7z m-73 -322 c42 -23 66 -75 66 -142 0 -100 -67 -164 -163 -156
-86 7 -140 69 -140 161 0 52 19 102 47 125 48 40 131 46 190 12z"/>
<path d="M7865 2179 c-57 -14 -154 -54 -272 -112 l-101 -50 -4 -246 -3 -246
-29 -54 c-16 -30 -44 -70 -62 -88 l-34 -33 29 0 c17 0 42 -11 60 -26 30 -25
31 -28 31 -115 0 -82 -2 -92 -25 -114 -24 -25 -27 -25 -193 -25 -93 0 -171 -3
-175 -6 -15 -15 58 -113 95 -126 30 -12 35 -196 11 -458 -4 -50 -3 -62 6 -54
7 6 15 37 18 68 3 31 9 59 13 61 9 5 30 -104 30 -154 0 -32 37 -117 47 -107 3
3 0 19 -6 37 -6 18 -11 60 -11 95 0 35 -5 84 -12 109 -7 24 -9 47 -5 51 8 8
40 -28 63 -69 24 -44 29 -24 8 33 -10 28 -28 57 -41 65 -13 9 -23 22 -23 29 0
7 -9 35 -21 60 -14 32 -21 71 -22 124 l-2 77 39 0 c30 0 40 -5 46 -21 8 -19
19 -22 107 -28 55 -4 117 -3 141 2 57 13 73 -1 157 -142 74 -123 74 -124 28
-268 -13 -43 -23 -86 -20 -95 4 -19 3 -21 53 95 13 28 27 52 32 52 16 0 20
-139 7 -204 -7 -34 -11 -63 -9 -65 1 -2 12 11 22 28 13 22 21 60 26 124 4 50
9 94 12 97 3 2 28 -7 55 -22 43 -22 49 -24 49 -9 0 20 -31 50 -72 71 -15 7
-30 22 -34 32 -3 10 -21 38 -39 62 -55 72 -146 219 -142 231 2 5 35 15 74 22
39 6 89 21 112 32 22 12 50 21 62 21 35 0 85 37 144 108 101 122 154 261 165
437 4 66 14 152 23 190 8 39 18 87 21 108 9 50 37 66 136 76 126 13 125 27 -5
72 -56 19 -63 26 -76 73 -12 47 -52 92 -124 141 -76 52 -253 79 -360 54z"/>
<path d="M5057 2095 c-22 -7 -50 -23 -63 -36 l-24 -22 0 31 0 32 -60 0 -60 0
0 -260 0 -260 59 0 59 0 4 158 c4 207 22 240 137 258 l41 7 0 53 c0 52 -1 54
-27 54 -16 -1 -45 -7 -66 -15z"/>
<path d="M6406 2094 c-22 -8 -47 -21 -56 -29 -23 -21 -30 -19 -30 10 0 24 -3
25 -60 25 l-60 0 2 -257 3 -258 60 0 60 0 5 172 5 173 32 32 c27 27 41 32 91
36 55 4 62 2 93 -26 l34 -30 5 -179 5 -178 60 0 60 0 0 180 c0 206 -7 237 -65
289 -61 55 -159 71 -244 40z"/>
<path d="M7010 2101 c-72 -22 -138 -79 -164 -143 -25 -59 -21 -155 9 -215 44
-88 122 -133 233 -133 53 0 79 6 121 26 28 15 55 24 58 21 3 -3 0 -29 -7 -56
-20 -86 -82 -120 -195 -108 -43 4 -109 28 -156 54 -6 4 -49 -70 -49 -86 0 -7
26 -24 57 -38 46 -21 77 -27 159 -31 158 -7 236 28 282 126 27 56 27 59 30
320 l3 262 -60 0 -61 0 0 -31 0 -30 -32 24 c-18 13 -48 29 -67 36 -38 12 -123
13 -161 2z m181 -112 c30 -16 68 -69 75 -105 9 -48 -19 -118 -59 -146 -66 -47
-183 -31 -230 33 -44 60 -28 167 31 205 50 33 135 39 183 13z"/>
<path d="M4570 1840 l0 -260 60 0 60 0 0 260 0 260 -60 0 -60 0 0 -260z"/>
<path d="M5920 1840 l0 -260 60 0 60 0 0 260 0 260 -60 0 -60 0 0 -260z"/>
<path d="M3890 1210 l0 -50 1751 0 1750 0 -3 48 -3 47 -1747 3 -1748 2 0 -50z"/>
<path d="M6701 1059 c-31 -12 -148 -99 -180 -133 -18 -19 -22 -31 -17 -52 l7
-27 81 7 c44 4 94 14 112 23 45 22 256 175 256 185 0 11 -230 9 -259 -3z"/>
</g>
</svg>
