<?xml version="1.0" standalone="no"?>
<!DOCTYPE svg PUBLIC "-//W3C//DTD SVG 20010904//EN"
 "http://www.w3.org/TR/2001/REC-SVG-20010904/DTD/svg10.dtd">
<svg version="1.0" xmlns="http://www.w3.org/2000/svg"
 width="200.000000pt" height="150.000000pt" viewBox="0 0 200.000000 150.000000"
 preserveAspectRatio="xMidYMid meet">

<g transform="translate(0.000000,150.000000) scale(0.100000,-0.100000)"
fill="#000000" stroke="none">
<path d="M1746 1098 c-35 -18 -141 -58 -154 -58 -3 0 3 9 13 20 31 34 12 31
-73 -12 l-82 -42 0 -44 c0 -34 3 -42 13 -35 20 17 155 63 267 93 64 16 104 32
102 39 -1 6 5 14 13 17 18 7 20 25 3 20 -7 -3 -26 -7 -43 -11 -29 -6 -29 -6
-11 14 25 28 5 27 -48 -1z"/>
<path d="M944 1097 c-3 -8 -4 -47 -2 -88 l3 -74 118 -3 117 -3 0 -150 c0 -146
-1 -151 -25 -174 -37 -38 -79 -31 -136 22 l-26 24 -59 -71 c-32 -39 -60 -75
-62 -79 -5 -14 88 -70 142 -86 27 -8 77 -15 111 -15 122 0 211 46 258 134 21
39 22 56 25 309 l3 267 -231 0 c-184 0 -232 -3 -236 -13z"/>
<path d="M110 1080 c0 -28 16 -58 48 -93 20 -21 59 -38 153 -68 69 -22 157
-46 195 -54 81 -17 163 -41 183 -54 12 -8 12 -13 -1 -33 -11 -16 -14 -34 -10
-54 6 -24 12 -29 37 -30 17 -1 44 -7 61 -14 27 -12 46 -10 140 10 60 12 135
25 167 27 56 5 58 6 55 31 -2 18 -10 28 -23 30 -37 7 -40 22 -7 34 27 11 32
17 32 45 l0 33 -74 0 c-61 0 -84 -5 -122 -25 -53 -28 -116 -28 -194 0 -24 9
-103 27 -175 40 -191 36 -336 92 -422 162 -40 32 -43 33 -43 13z"/>
</g>
</svg>
