<?xml version="1.0" encoding="UTF-8" standalone="no"?>
<!DOCTYPE svg PUBLIC "-//W3C//DTD SVG 20010904//EN"
              "http://www.w3.org/TR/2001/REC-SVG-20010904/DTD/svg10.dtd">

<svg xmlns="http://www.w3.org/2000/svg"
     viewBox="0 0 1000 1000"
fill="red" stroke-width="1" stroke="black">
  <path id="Selección"
        d="M199,1000L199,1000 199.772,997.969 201.47,993.5 203.168,989.031 203.94,987 204.623,985.125 206.125,981 207.627,976.875 208.31,975 211.437,968.75 218.315,955 221.989,947.656 225.193,941.25 227.46,936.719 228.32,935 229.211,932.656 231.17,927.5 233.129,922.344 234.02,920 235.231,917.5 237.895,912 239.318,909.062 240.559,906.5 241.437,904.688 241.77,904 243.265,898.844 246.555,887.5 249.845,876.156 251.34,871 255.498,858.616 259.72,846.236 263.552,833.739 266.54,821 268.062,809.75 271.41,785 273.198,771.781 274.758,760.25 275.861,752.094 276.28,749 277.199,741.969 279.22,726.5 281.241,711.031 282.16,704 282.408,702.125 282.955,698 283.247,695.797 283.502,693.875 283.682,692.516 283.75,692 283.511,687.938 282.985,679 282.459,670.062 282.22,666 282.136,663.969 281.95,659.5 281.764,655.031 281.68,653 280.695,648.768 278.993,642.819 277.076,636.995 275.45,633.14 271.952,629.649 269.31,625.94 268.935,621.97 268.56,618 267.007,611.881 265.35,607 262.988,594.361 259.59,585 259.1,576.5 258.61,568 257.48,564.5 256.35,561 251.595,542.909 249,539 248,526 247,513 240.979,508.115 242,499 244.97,477.048 244.43,463 245,459 245.57,455 244.578,450.45 244.23,445 246.805,438.111 249.32,429.01 253.86,418.505 258.4,408 259.42,404.5 260.44,401 266.896,383.635 267.99,375 272.26,365 276.53,355 290.044,336.197 307,320.71 323.5,306.325 343,291.13 357.689,281.776 373,273.45 376.5,272.025 380,270.6 392,264.976 410,258.37 420.98,254.25 431.96,250.13 439.06,248.555 446.16,246.98 462.876,243.574 491,241 510.5,243.36 530,245.72 540.5,246.665 551,247.61 607.161,270.456 643.41,295.29 648.875,303.145 654.34,311 662.315,321.5 670.29,332 686.094,343.953 698.913,351.822 704.469,354.458 709.597,356.351 714.406,357.594 719,358.28 724,358.705 735,359.64 740.875,360.139 746,360.575 748.047,360.749 749.625,360.883 750.641,360.969 751,361 773.821,360.849 797.404,361.325 809.102,362.38 820.535,364.291 826.105,365.64 831.552,367.29 836.856,369.27 842,371.61 850.268,376.423 857.938,382.09 861.588,385.166 865.138,388.364 866.881,389.999 868.604,391.652 870.309,393.321 872,395 877.211,400.337 881.526,405.261 883.486,407.813 885.386,410.555 887.283,413.584 889.23,417 894.098,426.23 898.084,435.675 900.335,445.533 900,456 897.5,455.692 892,455.015 886.5,454.338 884,454.03 881.188,454.449 875,455.37 868.812,456.291 866,456.71 862.875,456.979 856,457.57 849.125,458.161 846,458.43 839.475,459.896 833.372,461.81 827.333,463.417 821,463.96 816.625,462.737 807,460.045 797.375,457.353 793,456.13 784.754,454.915 779.041,454.274 773.308,454.028 765,454 759.43,454.286 756.411,454.888 753.687,455.462 749,455.67 747.528,455.54 744.29,455.255 741.052,454.97 739.58,454.84 730.479,455.035 717.349,455.81 704.442,456.952 696.01,458.25 692.079,459.852 688.77,462.15 685.806,464.935 682.91,468 675.65,476.524 669.68,486 669.05,487.536 667.665,490.915 666.28,494.294 665.65,495.83 664.836,496.841 663.045,499.065 661.254,501.289 660.44,502.3 658.12,505.939 655.226,510.786 652.237,515.298 649.63,517.93 648.611,518.266 647.774,518.294 646.957,518.14 646,517.93 644.671,521.217 643.19,524.265 641.289,527.028 638.7,529.46 636.539,530.732 634.317,531.724 631.928,533.036 629.26,535.27 625.914,539.755 623.154,544.985 621.029,549.712 619.59,552.69 616.838,555.049 613.92,557.31 612.756,559.526 611.416,562.934 610.229,566.452 609.52,569 609.207,573.952 609.989,579.109 611.406,584.211 613,589 617.141,599.805 620.987,608.48 624.59,617.665 628,630 627.38,634.087 628.489,638.918 630.353,643.79 632,648 631.745,648.103 631.171,648.466 630.57,649.169 630.23,650.29 631.319,653.213 633.715,659.645 636.111,666.077 637.2,669 639.339,674.156 644.045,685.5 648.751,696.844 650.89,702 653.095,706.688 657.945,717 662.795,727.312 665,732 673.517,755.786 680.43,780 682.393,787.031 686.71,802.5 691.028,817.969 692.99,825 693.22,826.406 693.725,829.5 694.23,832.594 694.46,834 695.001,836.5 696.19,842 697.379,847.5 697.92,850 698.382,852.812 699.4,859 700.418,865.188 700.88,868 702.635,874.562 706.495,889 710.355,903.438 712.11,910 713.615,916.406 716.925,930.5 720.235,944.594 721.74,951 723.107,955.375 726.115,965 729.123,974.625 730.49,979 730.917,980.562 731.855,984 732.793,987.438 733.22,989 735.11,994.5 737,1000 468,1000 Z" />
</svg>
