<?xml version="1.0" encoding="UTF-8" standalone="no"?>
<!DOCTYPE svg PUBLIC "-//W3C//DTD SVG 20010904//EN"
              "http://www.w3.org/TR/2001/REC-SVG-20010904/DTD/svg10.dtd">

<svg xmlns="http://www.w3.org/2000/svg"
     viewBox="0 0 1000 1000">
  <path id="Selección"
        fill="red" stroke="black" stroke-width="1"
        d="M78,1000L78,1000 85.385,983 92.77,966 97.72,948.5 102.67,931 110.31,911.5 117.95,892 118.892,889.344 120.965,883.5 123.038,877.656 123.98,875 127.2,864.5 130.42,854 135.765,841.5 141.11,829 143.94,823.5 146.77,818 148.026,814.562 150.79,807 153.554,799.438 154.81,796 162.535,778.5 170.26,761 179.44,744 188.62,727 192.07,722 195.52,717 196.929,714.344 200.03,708.5 203.131,702.656 204.54,700 210.225,692 215.91,684 220.15,675.789 225.68,667 233.925,657 242.17,647 244.906,644.031 250.925,637.5 256.944,630.969 259.68,628 265,620.5 270.32,613 285.165,597.875 300.01,582.75 327.005,560.4 354,538.05 360.358,532.301 367.031,525.82 373.219,518.942 378.12,512 383.715,500 389.31,488 394.61,477 399.91,466 401.98,459.5 404.05,453 406.328,447.145 409,440.395 411.357,433.698 412.69,428 411.99,416.049 410.33,404 410.811,398.44 412.08,393 412.08,389 412.08,385 413.38,380.5 414.68,376 415.105,371.5 415.53,367 420.402,355.23 426.49,344 430.43,336 434.37,328 437.34,321.5 440.31,315 443.65,309.5 446.99,304 449.225,300 451.46,296 458.105,287 464.75,278 467.11,274.5 469.47,271 473.25,266.5 477.03,262 479.75,256.372 481.75,251 486.635,242.585 491.52,234.17 496.44,228.585 501.36,223 504.15,218.031 507.27,213.64 512.402,210.679 518,208.1 524.096,203.691 528.28,200.25 535.14,197.445 542,194.64 551.54,185.345 558.05,178.36 571.025,176.16 584,173.96 591,171.32 598,168.68 604.5,168 611,167.32 616,165.785 621,164.25 631.237,165.062 642,166.58 654,168.295 666,170.01 688.5,177.105 711,184.2 727.118,190.667 744,194 748.5,194 753,194 759.535,193.44 766.541,192.155 770.067,191.354 773.527,190.51 775.213,190.085 776.858,189.666 777.664,189.461 778.457,189.259 778.848,189.16 779.236,189.062 779.62,188.965 780,188.87 786.719,187.018 801.5,182.945 809.395,180.769 816.281,178.872 819.032,178.114 821.152,177.529 821.937,177.313 822.517,177.153 822.725,177.096 822.877,177.054 822.969,177.029 823,177.02 831.281,174.6 849.5,169.275 859.23,166.431 867.719,163.95 871.109,162.959 873.723,162.196 874.69,161.913 875.405,161.704 875.662,161.629 875.848,161.574 875.962,161.541 876,161.53 884.192,159.418 892.271,157.555 900.465,156.307 909,156.04 915.819,156.494 920.977,158.037 923.934,161.82 924.15,168.99 922.91,172.077 920.561,174.766 919.163,175.981 917.719,177.12 916.306,178.19 915,179.2 910.938,182.228 902,188.89 897.227,192.448 893.062,195.552 890.117,197.747 889,198.58 882.906,202.905 869.5,212.42 856.094,221.935 850,226.26 846.875,228.283 840,232.735 836.328,235.113 833.125,237.187 830.859,238.654 830,239.21 828.55,240.452 825.36,243.185 823.656,244.645 822.17,245.918 821.119,246.818 820.72,247.16 819.357,247.885 816.36,249.48 813.362,251.075 812,251.8 805.468,257.292 799.111,264.362 793.754,272.202 790.22,280 789.327,291.718 792.83,303 810.495,355.774 814,363 827.75,375.25 831,380 804.875,383.75 790,389 810.125,390.25 810,393 841.625,407.875 847,410 851.25,409.875 851,409 841.25,416.875 845,421 854,429.5 848,429 855.719,437.799 861,442 864.659,451.461 866,457 853.625,452.375 851,450 845.125,441.75 837,438 825.398,433.747 807,426 837.625,443.25 839,450 848.426,457.352 844,458 835.737,453.731 843,460 815.331,453.533 800,452 847.625,475.25 857,479 881.875,510 885,511 879.625,506.875 875,505 850,488 846,489 860.69,513.69 858.04,513.51 844.63,501.314 841,497 821.888,492.561 834.23,509.91 851.404,535.864 859,543 856.253,569.025 851,567 840.5,544.125 836,537 828.75,536.5 823,539 817.625,528.875 816,524 812.125,517 809,519 812.5,530.375 816,535 814.625,543.75 814,548 819.75,558.375 824,559 827.625,579.5 826,582 817.375,579.375 814,582 812.125,580.25 814,583 813.996,611.479 811,629 805.759,591.131 803,580 801.197,574.861 803.58,586.89 799.197,579.736 796,577 786.875,586.625 783,582 788.875,620.125 794,635 779.514,649.875 780.11,652 779.14,621.264 777,609 772.375,611.125 770,617 760.29,684.584 757,699 750.712,727.661 749,741 746.59,789.625 746.82,812 739.38,920 730.65,1000 642.026,1000Z" />
</svg>
